<svg id="Layer_1" data-name="Layer 1" xmlns="http://www.w3.org/2000/svg" viewBox="0 0 355.13 267.37"><defs><style>.cls-1{fill:#fff;fill-rule:evenodd;}</style></defs><title>carbone-logo</title><path class="cls-1" d="M99.49,221.76c30.65,52.9,99.72,23.79,87.44-25.1C213.12,254.62,124.41,305,74.07,236Z" transform="translate(-4 -2)"/><path class="cls-1" d="M188.92,48.85c58.69,47.07,100.72,92.36,170.21,31.95-42,49.81-84,61.07-135.88,30.67-11.14-6.53-21.2-12.89-29.66-18.54-25.86-17.28-32.19-20-63-31.53,35.23,16.08,44.63,28.75,67,42.93,58.79,37.25,97.69,51.1,161.52-23.53C342.3,104.36,323.3,126.64,299.66,140,275.47,153.59,250,153,225,146.61c-18.47-4.75-50.37-21.24-81.1-32-45.63-16-80.22,2.36-76.91,47L25.77,177.53C-13.75,117.38,3.43,50.32,54,24.36,89.37,6.18,138.7,8.56,188.92,48.85Z" transform="translate(-4 -2)"/><path class="cls-1" d="M200.51,4.51h-3a.57.57,0,0,0-.45.18.6.6,0,0,0-.18.44v11a.61.61,0,0,1-.62.62h-1.57a.61.61,0,0,1-.45-.18.6.6,0,0,1-.18-.44v-11a.63.63,0,0,0-.18-.45.61.61,0,0,0-.45-.18h-3a.59.59,0,0,1-.44-.18.58.58,0,0,1-.19-.44V2.62a.61.61,0,0,1,.62-.62h10a.59.59,0,0,1,.44.18.58.58,0,0,1,.19.44V3.88a.66.66,0,0,1-.19.45.6.6,0,0,1-.44.18Zm17.42-2.15V16.15a.61.61,0,0,1-.18.45.58.58,0,0,1-.42.18h-1.6a.58.58,0,0,1-.44-.19.59.59,0,0,1-.18-.44V9.94c0-.17,0-.28-.11-.31s-.16,0-.27.17l-3.83,4.57a.48.48,0,0,1-.4.2.47.47,0,0,1-.39-.2l-3.81-4.58c-.11-.13-.2-.18-.28-.16s-.12.13-.12.3v6.21a.62.62,0,0,1-.19.45.6.6,0,0,1-.44.18h-1.57a.62.62,0,0,1-.63-.63V2.35a.27.27,0,0,1,.24-.3.42.42,0,0,1,.41.16l6.36,7.87a.52.52,0,0,0,.41.18.52.52,0,0,0,.4-.18l6.4-7.86a.39.39,0,0,1,.4-.16A.27.27,0,0,1,217.93,2.36Z" transform="translate(-4 -2)"/><path class="cls-1" d="M199.44,146.45l-33.36-15.27-137.4,52.3A96.64,96.64,0,0,0,36,199l5.37,7.46c7.65,8.76,18.85,15.48,36.45,11.1a53,53,0,0,0,33.44-26.59c12.41-23.89,13.13-23,33.83-11.77,28.17,13.32,51.47-3.21,54.7-19.41A32.9,32.9,0,0,0,199.44,146.45ZM79.84,211.26l-9.78-8.1L52.13,213.73l12.62-17.42-13.4-17.22,19.09,9,20.65-12.64L78.57,194.12Z" transform="translate(-4 -2)"/></svg>